<svg xmlns="http://www.w3.org/2000/svg" data-tv-id="tree.canvas" width="985.928" height="684.231" viewBox="-12 327.769 985.928 684.231"><g data-tv-id="zoom-group" transform="translate(0 0) scale(1)"><g data-tv-layer="branches"><line x1="463.18208055840165" y1="552.350390625" x2="463.18208055840165" y2="497.900390625" stroke="#0f766e" stroke-width="7" stroke-linecap="round"/><line x1="463.18208055840165" y1="497.900390625" x2="532.7066066854509" y2="497.900390625" stroke="#0f766e" stroke-width="7" stroke-linecap="round"/><line x1="532.7066066854509" y1="497.900390625" x2="532.7066066854509" y2="471.50039062499997" stroke="#14b8a6" stroke-width="5.2" stroke-linecap="round"/><line x1="532.7066066854509" y1="471.50039062499997" x2="602.2311328125" y2="471.50039062499997" stroke="#14b8a6" stroke-width="5.2" stroke-linecap="round"/><line x1="602.2311328125" y1="471.50039062499997" x2="602.2311328125" y2="458.300390625" stroke="#5eead4" stroke-width="2.6" stroke-linecap="round"/><line x1="602.2311328125" y1="458.300390625" x2="741.2801850665984" y2="458.300390625" stroke="#5eead4" stroke-width="3.85" stroke-linecap="round"/><circle cx="741.2801850665984" cy="458.300390625" r="2" fill="#5eead4"/><line x1="602.2311328125" y1="471.50039062499997" x2="602.2311328125" y2="484.70039062499995" stroke="#67e8f9" stroke-width="2.3" stroke-linecap="round"/><line x1="602.2311328125" y1="484.70039062499995" x2="741.2801850665984" y2="484.70039062499995" stroke="#67e8f9" stroke-width="3.55" stroke-linecap="round"/><circle cx="741.2801850665984" cy="484.70039062499995" r="2" fill="#67e8f9"/><line x1="532.7066066854509" y1="497.900390625" x2="532.7066066854509" y2="524.300390625" stroke="#2dd4bf" stroke-width="4.4" stroke-linecap="round"/><line x1="532.7066066854509" y1="524.300390625" x2="602.2311328125" y2="524.300390625" stroke="#2dd4bf" stroke-width="4.4" stroke-linecap="round"/><line x1="602.2311328125" y1="524.300390625" x2="602.2311328125" y2="511.100390625" stroke="#99f6e4" stroke-width="2.1" stroke-linecap="round"/><line x1="602.2311328125" y1="511.100390625" x2="741.2801850665984" y2="511.100390625" stroke="#99f6e4" stroke-width="3.35" stroke-linecap="round"/><circle cx="741.2801850665984" cy="511.100390625" r="2" fill="#99f6e4"/><line x1="602.2311328125" y1="524.300390625" x2="602.2311328125" y2="537.500390625" stroke="#ccfbf1" stroke-width="1.8" stroke-linecap="round"/><line x1="602.2311328125" y1="537.500390625" x2="741.2801850665984" y2="537.500390625" stroke="#ccfbf1" stroke-width="3.05" stroke-linecap="round"/><circle cx="741.2801850665984" cy="537.500390625" r="2" fill="#ccfbf1"/><line x1="463.18208055840165" y1="552.350390625" x2="463.18208055840165" y2="606.800390625" stroke="#dc2626" stroke-width="7" stroke-linecap="round"/><line x1="463.18208055840165" y1="606.800390625" x2="532.7066066854509" y2="606.800390625" stroke="#dc2626" stroke-width="7" stroke-linecap="round"/><line x1="532.7066066854509" y1="606.800390625" x2="532.7066066854509" y2="577.100390625" stroke="#333333" stroke-width="1" stroke-linecap="round"/><line x1="532.7066066854509" y1="577.100390625" x2="602.2311328125" y2="577.100390625" stroke="#333333" stroke-width="1" stroke-linecap="round"/><line x1="602.2311328125" y1="577.100390625" x2="602.2311328125" y2="563.900390625" stroke="#333333" stroke-width="1" stroke-linecap="round"/><line x1="602.2311328125" y1="563.900390625" x2="741.2801850665984" y2="563.900390625" stroke="#333333" stroke-width="2.25" stroke-linecap="round"/><circle cx="741.2801850665984" cy="563.900390625" r="2" fill="#333333"/><line x1="602.2311328125" y1="577.100390625" x2="602.2311328125" y2="590.300390625" stroke="#333333" stroke-width="1" stroke-linecap="round"/><line x1="602.2311328125" y1="590.300390625" x2="741.2801850665984" y2="590.300390625" stroke="#333333" stroke-width="2.25" stroke-linecap="round"/><circle cx="741.2801850665984" cy="590.300390625" r="2" fill="#333333"/><line x1="532.7066066854509" y1="606.800390625" x2="532.7066066854509" y2="636.500390625" stroke="#ef4444" stroke-width="5.4" stroke-linecap="round"/><line x1="532.7066066854509" y1="636.500390625" x2="602.2311328125" y2="636.500390625" stroke="#ef4444" stroke-width="5.4" stroke-linecap="round"/><line x1="602.2311328125" y1="636.500390625" x2="602.2311328125" y2="616.700390625" stroke="#333333" stroke-width="1" stroke-linecap="round"/><line x1="602.2311328125" y1="616.700390625" x2="741.2801850665984" y2="616.700390625" stroke="#333333" stroke-width="2.25" stroke-linecap="round"/><circle cx="741.2801850665984" cy="616.700390625" r="2" fill="#333333"/><line x1="602.2311328125" y1="636.500390625" x2="602.2311328125" y2="656.300390625" stroke="#f97316" stroke-width="3.6" stroke-linecap="round"/><line x1="602.2311328125" y1="656.300390625" x2="671.7556589395492" y2="656.300390625" stroke="#f97316" stroke-width="3.6" stroke-linecap="round"/><line x1="671.7556589395492" y1="656.300390625" x2="671.7556589395492" y2="643.100390625" stroke="#333333" stroke-width="1" stroke-linecap="round"/><line x1="671.7556589395492" y1="643.100390625" x2="741.2801850665984" y2="643.100390625" stroke="#333333" stroke-width="2.25" stroke-linecap="round"/><circle cx="741.2801850665984" cy="643.100390625" r="2" fill="#333333"/><line x1="671.7556589395492" y1="656.300390625" x2="671.7556589395492" y2="669.500390625" stroke="#fb923c" stroke-width="2" stroke-linecap="round"/><line x1="671.7556589395492" y1="669.500390625" x2="741.2801850665984" y2="669.500390625" stroke="#fb923c" stroke-width="3.25" stroke-linecap="round"/><circle cx="741.2801850665984" cy="669.500390625" r="2" fill="#fb923c"/></g><g data-tv-layer="tips"><circle cx="741.2801850665984" cy="458.300390625" r="5.5" fill="#5eead4"/><circle cx="741.2801850665984" cy="484.70039062499995" r="5" fill="#67e8f9"/><circle cx="741.2801850665984" cy="511.100390625" r="5" fill="#99f6e4"/><circle cx="741.2801850665984" cy="537.500390625" r="4.5" fill="#ccfbf1"/><circle cx="741.2801850665984" cy="669.500390625" r="5.5" fill="#fb923c"/><circle cx="602.2311328125" cy="471.50039062499997" r="7" fill="#14b8a6"/><circle cx="602.2311328125" cy="524.300390625" r="6" fill="#2dd4bf"/><circle cx="532.7066066854509" cy="497.900390625" r="9" fill="#0f766e"/><circle cx="671.7556589395492" cy="656.300390625" r="7" fill="#f97316"/><circle cx="602.2311328125" cy="636.500390625" r="8" fill="#ef4444"/><circle cx="532.7066066854509" cy="606.800390625" r="9" fill="#dc2626"/><circle cx="463.18208055840165" cy="552.350390625" r="5" fill="#475569"/></g><g data-tv-layer="labels"><text x="749.2801850665984" y="462.300390625" font-family="Inter" font-size="12" font-weight="normal" fill="#111111" text-anchor="start">A1</text><text x="749.2801850665984" y="488.70039062499995" font-family="Inter" font-size="12" font-weight="normal" fill="#111111" text-anchor="start">A2</text><text x="749.2801850665984" y="515.100390625" font-family="Inter" font-size="12" font-weight="normal" fill="#111111" text-anchor="start">A3</text><text x="749.2801850665984" y="541.500390625" font-family="Inter" font-size="12" font-weight="normal" fill="#111111" text-anchor="start">A4</text><text x="749.2801850665984" y="567.900390625" font-family="Inter" font-size="12" font-weight="normal" fill="#111111" text-anchor="start">B1</text><text x="749.2801850665984" y="594.300390625" font-family="Inter" font-size="12" font-weight="normal" fill="#111111" text-anchor="start">B2</text><text x="749.2801850665984" y="620.700390625" font-family="Inter" font-size="12" font-weight="normal" fill="#111111" text-anchor="start">C1</text><text x="749.2801850665984" y="647.100390625" font-family="Inter" font-size="12" font-weight="normal" fill="#111111" text-anchor="start">C2</text><text x="749.2801850665984" y="673.500390625" font-family="Inter" font-size="12" font-weight="normal" fill="#111111" text-anchor="start">C3</text></g><g data-tv-layer="track:color-strip-0-style_role"><rect x="769.4579194415984" y="451.300390625" width="21.119999999999997" height="14" fill="#14b8a6"/><rect x="769.4579194415984" y="477.70039062499995" width="21.119999999999997" height="14" fill="#14b8a6"/><rect x="769.4579194415984" y="504.100390625" width="21.119999999999997" height="14" fill="#14b8a6"/><rect x="769.4579194415984" y="530.500390625" width="21.119999999999997" height="14" fill="#14b8a6"/><rect x="769.4579194415984" y="556.900390625" width="21.119999999999997" height="14" fill="#cbd5e1"/><rect x="769.4579194415984" y="583.300390625" width="21.119999999999997" height="14" fill="#cbd5e1"/><rect x="769.4579194415984" y="609.700390625" width="21.119999999999997" height="14" fill="#cbd5e1"/><rect x="769.4579194415984" y="636.100390625" width="21.119999999999997" height="14" fill="#cbd5e1"/><rect x="769.4579194415984" y="662.500390625" width="21.119999999999997" height="14" fill="#f97316"/><text x="785.5179194415983" y="452.300390625" font-family="Inter" font-size="11" font-weight="500" fill="#475569" text-anchor="start" transform="rotate(-90,785.5179194415983,452.300390625)">Style role</text></g><g data-tv-layer="track:bar-1-branch_width"><rect x="790.5779194415984" y="453.300390625" width="26.386285714285716" height="10" fill="#0f766e"/><rect x="790.5779194415984" y="479.70039062499995" width="23.341714285714282" height="10" fill="#0f766e"/><rect x="790.5779194415984" y="506.100390625" width="21.311999999999998" height="10" fill="#0f766e"/><rect x="790.5779194415984" y="532.500390625" width="18.267428571428574" height="10" fill="#0f766e"/><rect x="790.5779194415984" y="664.500390625" width="20.297142857142855" height="10" fill="#0f766e"/><line x1="790.5779194415984" y1="434.300390625" x2="861.6179194415984" y2="434.300390625" stroke="#64748b" stroke-width="1" stroke-linecap="round"/><line x1="790.5779194415984" y1="434.300390625" x2="790.5779194415984" y2="438.300390625" stroke="#64748b" stroke-width="1" stroke-linecap="round"/><text x="792.5779194415984" y="448.300390625" font-family="Inter" font-size="10" font-weight="normal" fill="#64748b" text-anchor="start">0</text><line x1="826.0979194415984" y1="434.300390625" x2="826.0979194415984" y2="438.300390625" stroke="#64748b" stroke-width="1" stroke-linecap="round"/><text x="826.0979194415984" y="448.300390625" font-family="Inter" font-size="10" font-weight="normal" fill="#64748b" text-anchor="middle">3.5</text><line x1="861.6179194415984" y1="434.300390625" x2="861.6179194415984" y2="438.300390625" stroke="#64748b" stroke-width="1" stroke-linecap="round"/><text x="859.6179194415984" y="448.300390625" font-family="Inter" font-size="10" font-weight="normal" fill="#64748b" text-anchor="end">7</text><text x="831.5979194415984" y="452.300390625" font-family="Inter" font-size="11" font-weight="500" fill="#475569" text-anchor="start" transform="rotate(-90,831.5979194415984,452.300390625)">Terminal branch width</text></g><g data-tv-layer="track:text-2-style_note"><text x="861.6179194415984" y="462.300390625" font-family="Inter" font-size="12" font-weight="normal" fill="#111111" text-anchor="start">turquoise terminal</text><text x="861.6179194415984" y="488.70039062499995" font-family="Inter" font-size="12" font-weight="normal" fill="#111111" text-anchor="start">turquoise terminal</text><text x="861.6179194415984" y="515.100390625" font-family="Inter" font-size="12" font-weight="normal" fill="#111111" text-anchor="start">turquoise terminal</text><text x="861.6179194415984" y="541.500390625" font-family="Inter" font-size="12" font-weight="normal" fill="#111111" text-anchor="start">turquoise terminal</text><text x="861.6179194415984" y="567.900390625" font-family="Inter" font-size="12" font-weight="normal" fill="#111111" text-anchor="start">unstyled reference</text><text x="861.6179194415984" y="594.300390625" font-family="Inter" font-size="12" font-weight="normal" fill="#111111" text-anchor="start">unstyled reference</text><text x="861.6179194415984" y="620.700390625" font-family="Inter" font-size="12" font-weight="normal" fill="#111111" text-anchor="start">unstyled reference</text><text x="861.6179194415984" y="647.100390625" font-family="Inter" font-size="12" font-weight="normal" fill="#111111" text-anchor="start">unstyled sister tip</text><text x="861.6179194415984" y="673.500390625" font-family="Inter" font-size="12" font-weight="normal" fill="#111111" text-anchor="start">warm terminal</text><text x="919.2179194415984" y="452.300390625" font-family="Inter" font-size="11" font-weight="500" fill="#475569" text-anchor="middle">Style note</text></g></g><g data-tv-id="figure-legend.export" transform="translate(12 903)"><rect x="0" y="0" width="139" height="85" rx="4" fill="#ffffff" stroke="#111827" stroke-width="1"/><text x="8" y="20" fill="#111827" font-family="Inter, Arial, sans-serif" font-size="12" font-weight="700">Style role</text><rect x="8" y="27" width="11" height="11" fill="#14b8a6" stroke="#111827" stroke-width="0.7"/><text x="26" y="36.70" fill="#374151" font-family="Inter, Arial, sans-serif" font-size="12">turquoise_clade</text><rect x="8" y="44" width="11" height="11" fill="#cbd5e1" stroke="#111827" stroke-width="0.7"/><text x="26" y="53.70" fill="#374151" font-family="Inter, Arial, sans-serif" font-size="12">background</text><rect x="8" y="61" width="11" height="11" fill="#f97316" stroke="#111827" stroke-width="0.7"/><text x="26" y="70.70" fill="#374151" font-family="Inter, Arial, sans-serif" font-size="12">red_orange_path</text></g><g data-tv-id="figure-legend.export" transform="translate(12 844)"><rect x="0" y="0" width="178" height="51" rx="4" fill="#ffffff" stroke="#111827" stroke-width="1"/><text x="8" y="20" fill="#111827" font-family="Inter, Arial, sans-serif" font-size="12" font-weight="700">Terminal branch width</text><rect x="8" y="27" width="11" height="11" fill="#0f766e" stroke="#111827" stroke-width="0.7"/><text x="26" y="36.70" fill="#374151" font-family="Inter, Arial, sans-serif" font-size="12">0 - 7</text></g></svg>